<svg version="1.2" xmlns="http://www.w3.org/2000/svg" viewBox="0 0 114 118" width="114" height="118"><style>.a{fill:#767676}</style><path class="a" d="m20.4 28.9l1.4-1.4q0.7-0.7 1-1.5 0.4-0.8 0.3-1.5-0.1-0.7-0.7-1.3-0.8-0.7-1.5-0.9-0.8-0.1-1.6 0.2-0.8 0.3-1.5 1.1l-2.2 2.2 8.5 8.3 2.2-2.3q0.9-0.8 1.2-1.7 0.4-0.9 0.2-1.8-0.1-1-1-1.8-0.6-0.6-1.2-0.8-0.6-0.2-1.3 0-0.7 0.1-1.3 0.5-0.7 0.4-1.3 1l-1.4 1.5 0.5 0.5 1.5-1.5q0.4-0.4 0.9-0.6 0.4-0.2 0.8-0.3 0.5 0 0.9 0.1 0.5 0.2 0.8 0.6 0.6 0.5 0.7 1.1 0.1 0.6-0.1 1.2-0.2 0.6-0.8 1.1l-1.2 1.3-6.7-6.6 1.2-1.1q0.6-0.6 1.4-0.7 0.7-0.1 1.3 0.5 0.4 0.4 0.5 0.8 0.1 0.5-0.1 1-0.2 0.5-0.6 0.9l-1.4 1.3z"/><path class="a" d="m34.1 25q1.1-0.6 1.6-1.5 0.5-0.9 0.5-2.1h-1.3q0 0.8-0.3 1.4-0.3 0.7-1 1.1-0.7 0.4-1.4 0.4-0.6 0-1.2-0.4-0.6-0.4-1.1-1.2-0.4-0.8-0.5-1.4-0.1-0.7 0.2-1.3 0.3-0.6 1-1 0.5-0.3 1.1-0.3 0.6 0 1.1 0.2 0.5 0.3 0.9 0.9 0 0.1 0.1 0.3 0 0.2 0 0.3l0.1-1-4.8 3 0.6 1 5.7-3.6q0 0-0.1-0.1 0-0.1-0.1-0.2-0.6-1.1-1.5-1.6-0.8-0.5-1.8-0.5-1 0-1.9 0.6-1 0.6-1.5 1.5-0.5 0.9-0.4 1.9 0.1 1.1 0.7 2.1 0.6 1 1.5 1.6 0.9 0.5 1.9 0.5 1 0 1.9-0.6z"/><path class="a" d="m40 18.6l-0.8 1q0.4 0.3 0.9 0.6 0.6 0.3 1.3 0.4 0.7 0 1.4-0.3 1.1-0.4 1.6-1.2 0.5-0.9 0.2-1.9-0.3-0.7-0.7-1-0.5-0.3-1.1-0.4-0.7-0.1-1.4-0.1-0.4 0-0.9-0.1-0.4 0-0.7-0.2-0.3-0.1-0.4-0.4-0.1-0.4 0.1-0.7 0.2-0.2 0.6-0.4 0.6-0.2 1.2-0.1 0.5 0.1 1 0.4l0.8-1q-0.4-0.3-0.9-0.5-0.5-0.2-1.1-0.2-0.6 0-1.2 0.2-0.6 0.2-1.1 0.6-0.5 0.4-0.7 1-0.1 0.5 0.1 1.2 0.2 0.6 0.7 1 0.5 0.3 1.1 0.4 0.5 0 1.1 0.1 0.5 0 0.9 0 0.5 0.1 0.8 0.3 0.4 0.1 0.5 0.5 0.2 0.4-0.1 0.8-0.2 0.4-0.7 0.5-0.5 0.2-0.9 0.2-0.5-0.1-0.9-0.3-0.3-0.1-0.7-0.4z"/><path class="a" d="m46.8 10.6l0.3 1.3 3.8-0.7-0.2-1.3zm0.8-2.8l1.8 10.3 1.3-0.2-1.8-10.4z"/><path class="a" d="m61.9 14.6q0-0.4 0.3-0.7 0.3-0.3 0.7-0.4 0.4 0 1.1 0.1 0.7 0.1 1.3 0.4 0.6 0.3 1.1 0.8l0.1-0.8q-0.1-0.2-0.4-0.5-0.3-0.3-0.8-0.6-0.5-0.3-1.3-0.4-1.5-0.3-2.4 0.3-0.9 0.5-1.1 1.6-0.1 0.8 0.1 1.4 0.3 0.6 0.9 1.1 0.5 0.3 1.2 0.5 0.7 0.1 1.4 0 0.6-0.2 1.2-0.6 0.5-0.4 0.6-1.1l-0.1-1.1q-0.1 0.6-0.5 1-0.3 0.5-0.9 0.6-0.5 0.2-1.1 0.1-0.5-0.1-0.9-0.3-0.3-0.3-0.5-0.6-0.1-0.4 0-0.8zm0.4-3.6q0.2-0.1 0.5-0.2 0.4-0.1 0.9-0.2 0.5-0.1 1 0 0.4 0.1 0.7 0.2 0.3 0.1 0.5 0.3 0.2 0.2 0.3 0.5 0.1 0.3 0 0.7l-0.9 5.3 1.4 0.3 0.9-5.5q0.1-0.8-0.1-1.4-0.3-0.6-1-1-0.6-0.4-1.5-0.5-1.1-0.2-1.9 0-0.8 0.2-1.3 0.4z"/><path class="a" d="m75.1 12l-1.3-0.5-2.8 7.3 1.3 0.5zm1.6 2.3l1.1-0.8q-0.1-0.4-0.4-0.7-0.3-0.2-0.7-0.4-0.5-0.2-1.2 0.1-0.6 0.2-1.2 0.7-0.6 0.6-0.9 1.4l0.6 0.3q0.2-0.6 0.4-0.9 0.3-0.4 0.7-0.5 0.3-0.2 0.8 0 0.3 0.1 0.5 0.3 0.1 0.2 0.3 0.5z"/><path class="a" d="m82.9 15.5l-1.1-0.7-4 6.7 1.1 0.7zm1.3 2.5l1.2-0.6q-0.1-0.4-0.4-0.7-0.2-0.3-0.6-0.5-0.4-0.3-1.1-0.2-0.7 0.1-1.3 0.6-0.7 0.4-1.2 1.2l0.6 0.3q0.3-0.5 0.6-0.8 0.3-0.3 0.7-0.4 0.4 0 0.8 0.2 0.3 0.2 0.4 0.4 0.2 0.2 0.3 0.5z"/><path class="a" d="m91.4 17.2q-0.2 0.3-0.2 0.6 0.1 0.4 0.3 0.7 0.3 0.2 0.7 0.2 0.4 0 0.7-0.3 0.2-0.3 0.2-0.7-0.1-0.4-0.4-0.7-0.2-0.2-0.6-0.2-0.4 0.1-0.7 0.4zm-1.9 2.6l-5 6 1.1 0.9 5-6z"/><path class="a" d="m93.5 22.8l-4 8.2 8.8-2.5-1-1.2-5.6 1.9 2.8-5.3z"/><path class="a" d="m96.4 34.7q0.4-0.2 0.7-0.1 0.4 0 0.7 0.3 0.4 0.3 0.7 0.9 0.3 0.6 0.5 1.2 0.1 0.7 0 1.4l0.7-0.4q0.1-0.2 0.2-0.6 0-0.4-0.1-1-0.1-0.6-0.4-1.3-0.7-1.3-1.7-1.7-1-0.4-2 0.1-0.7 0.4-1 1-0.4 0.6-0.3 1.3 0 0.7 0.3 1.3 0.3 0.6 0.8 1 0.6 0.5 1.2 0.7 0.7 0.1 1.3-0.2l0.8-0.7q-0.5 0.3-1.1 0.2-0.6 0-1-0.4-0.5-0.3-0.8-0.8-0.2-0.5-0.2-0.9-0.1-0.4 0.1-0.7 0.2-0.4 0.6-0.6zm3.1-1.8q0.2 0.1 0.5 0.3 0.3 0.2 0.7 0.5 0.3 0.4 0.6 0.9 0.1 0.3 0.2 0.6 0.1 0.3 0.1 0.6 0 0.3-0.2 0.6-0.2 0.2-0.5 0.4l-4.8 2.5 0.6 1.2 5-2.6q0.7-0.4 0.9-1 0.3-0.5 0.3-1.3-0.1-0.7-0.5-1.5-0.5-1-1.2-1.5-0.6-0.6-1.1-0.8z"/><path class="a" d="m111.4 41.2l-12.6 4 0.4 1.3 12.6-4z"/><path class="a" d="m102.7 49.5l-0.8-1q-0.4 0.3-0.8 0.8-0.4 0.5-0.6 1.2-0.2 0.6-0.1 1.4 0.2 1.2 1 1.8 0.8 0.7 1.8 0.5 0.7-0.1 1.1-0.5 0.3-0.4 0.6-1 0.2-0.6 0.4-1.3 0.1-0.4 0.2-0.8 0.2-0.4 0.4-0.7 0.2-0.2 0.5-0.3 0.4 0 0.6 0.2 0.2 0.3 0.3 0.7 0.1 0.6-0.2 1.2-0.2 0.5-0.6 0.9l0.9 0.9q0.4-0.3 0.7-0.7 0.2-0.5 0.4-1.1 0.1-0.5 0-1.2-0.1-0.6-0.4-1.1-0.3-0.6-0.8-0.9-0.5-0.3-1.2-0.2-0.7 0.1-1.1 0.5-0.4 0.4-0.6 1-0.2 0.5-0.3 1.1-0.1 0.5-0.3 0.9-0.1 0.4-0.3 0.7-0.3 0.3-0.7 0.4-0.4 0-0.7-0.3-0.3-0.2-0.4-0.8-0.1-0.5 0-0.9 0.2-0.4 0.4-0.8 0.3-0.3 0.6-0.6z"/><path class="a" d="m103.5 65.4l-0.4-1.2q-0.5 0.1-1 0.4-0.5 0.4-1 0.9-0.4 0.6-0.5 1.3-0.3 1.2 0.2 2.1 0.5 0.9 1.5 1.1 0.7 0.1 1.2-0.1 0.5-0.3 0.9-0.7 0.5-0.5 0.9-1.1 0.2-0.4 0.5-0.7 0.3-0.3 0.5-0.5 0.3-0.2 0.6-0.1 0.4 0 0.5 0.4 0.1 0.3 0.1 0.7-0.2 0.6-0.6 1-0.3 0.5-0.8 0.7l0.4 1.2q0.5-0.2 0.9-0.5 0.4-0.3 0.8-0.8 0.3-0.5 0.4-1.1 0.1-0.7 0-1.3-0.1-0.6-0.4-1.1-0.4-0.4-1.1-0.6-0.6-0.1-1.2 0.1-0.5 0.3-0.9 0.7-0.3 0.5-0.6 0.9-0.3 0.5-0.6 0.8-0.3 0.4-0.6 0.6-0.3 0.2-0.7 0.1-0.5-0.1-0.7-0.5-0.1-0.4 0-0.9 0.1-0.5 0.3-0.9 0.3-0.3 0.7-0.5 0.3-0.3 0.7-0.4z"/><path class="a" d="m102.1 74.6l4.3 1.9 0.6-1.2-4.5-2q-1.3-0.6-2.3-0.3-1.1 0.3-1.6 1.5-0.3 0.7-0.2 1.3 0.1 0.7 0.5 1.4l-1.1-0.5-0.6 1.2 7.2 3.2 0.5-1.2-4.3-2q-0.5-0.2-0.8-0.6-0.3-0.4-0.4-1 0-0.5 0.2-1 0.4-0.7 1-0.9 0.7-0.2 1.5 0.2z"/><path class="a" d="m94.1 91.5q0.8 0.6 1.5 0.8 0.7 0.2 1.3 0 0.7-0.2 1.2-0.8 0.5-0.6 0.6-1.3 0.1-0.7-0.2-1.5 0.7 0.3 1.4 0.1 0.7-0.2 1.2-0.9 0.5-0.5 0.6-1.1 0.1-0.7-0.2-1.4l0.9 0.8 0.8-1.1-6-5-0.8 1 3.6 3.1q0.5 0.4 0.7 0.9 0.2 0.4 0.1 0.9-0.1 0.4-0.5 0.9-0.5 0.5-1 0.5-0.7 0-1.4-0.7l-3.7-3-0.8 1 3.6 3.1q0.5 0.4 0.7 0.8 0.2 0.5 0.1 0.9-0.1 0.5-0.5 0.9-0.5 0.6-1.1 0.6-0.6 0-1.3-0.7l-3.7-3-0.8 1z"/><path class="a" d="m82.5 100.9q0.5 0.9 1.1 1.3 0.6 0.4 1.3 0.4 0.6 0 1.3-0.4 0.7-0.4 1-1 0.3-0.7 0.3-1.5 0.6 0.4 1.3 0.5 0.7 0 1.4-0.4 0.6-0.4 0.9-1 0.3-0.5 0.2-1.3l0.6 1 1.2-0.7-4.1-6.7-1.2 0.7 2.5 4.1q0.4 0.5 0.4 1 0 0.5-0.2 0.9-0.2 0.4-0.7 0.7-0.6 0.4-1.2 0.2-0.6-0.2-1.1-1.1l-2.5-4-1.2 0.7 2.6 4q0.3 0.6 0.3 1 0.1 0.5-0.2 0.9-0.2 0.5-0.7 0.8-0.6 0.4-1.2 0.1-0.5-0.2-1.1-1l-2.5-4.1-1.1 0.7z"/><path class="a" d="m73 99.8q-1.2 0.3-1.9 1.1-0.8 0.7-1.1 1.8l1.3 0.4q0.2-0.8 0.7-1.3 0.5-0.5 1.2-0.7 0.8-0.3 1.4-0.1 0.7 0.2 1.1 0.7 0.5 0.6 0.7 1.4 0.3 0.9 0.1 1.6-0.1 0.7-0.5 1.1-0.5 0.5-1.2 0.7-0.6 0.2-1.2 0.1-0.5-0.2-1-0.6-0.4-0.4-0.6-1.1 0-0.1 0-0.3 0-0.2 0-0.2l-0.3 0.9 5.4-1.6-0.3-1.1-6.4 1.8q0 0.1 0 0.2 0 0.1 0.1 0.2 0.3 1.2 1 2 0.7 0.7 1.6 0.9 0.9 0.3 2 0 1.1-0.3 1.8-1.1 0.7-0.7 1-1.7 0.2-1-0.2-2.2-0.3-1.2-1-1.9-0.7-0.8-1.7-1.1-0.9-0.2-2 0.1z"/><path class="a" d="m64.5 109.9l1.4-0.1-0.6-7.8-1.4 0.1zm-2.5-1.3l-0.6 1.1q0.3 0.3 0.7 0.4 0.4 0.1 0.8 0.1 0.5-0.1 1-0.5 0.5-0.5 0.8-1.3 0.3-0.7 0.2-1.6h-0.6q0 0.6 0 1-0.1 0.5-0.4 0.8-0.3 0.2-0.8 0.3-0.3 0-0.5-0.1-0.3 0-0.6-0.2z"/><path class="a" d="m50.6 108.1q-0.4 1.3-1.3 2.1-0.9 0.9-2.1 1.1-1.1 0.3-2.2-0.1-0.8-0.2-1.4-0.6-0.7-0.5-1.1-1-0.4-0.6-0.6-1.2l-0.6 1.8q0.5 0.9 1.2 1.5 0.8 0.5 2 0.9 1.2 0.4 2.4 0.3 1.2-0.1 2.2-0.7 1-0.5 1.8-1.4 0.8-1 1.2-2.2 0.3-1.3 0.2-2.5-0.1-1.2-0.6-2.3-0.5-1-1.4-1.7-0.9-0.8-2.1-1.2-1.2-0.4-2.2-0.3-0.9 0-1.8 0.4l-0.6 1.9q0.5-0.4 1.2-0.6 0.7-0.2 1.4-0.2 0.8 0 1.6 0.2 1.1 0.4 1.9 1.2 0.8 0.9 1 2.1 0.3 1.2-0.1 2.5z"/><path fill-rule="evenodd" class="a" d="m37.9 104.2q-0.9 0.5-2 0.4-1 0-2-0.6-1-0.7-1.4-1.6-0.5-0.9-0.5-2 0.1-1 0.7-2.1 0.6-0.9 1.6-1.4 0.9-0.5 2-0.5 1 0.1 2 0.7 1 0.6 1.5 1.5 0.4 1 0.4 2 0 1.1-0.7 2.1-0.6 1-1.6 1.5zm1-3.6q0-0.8-0.3-1.4-0.3-0.6-1-1-0.6-0.5-1.3-0.5-0.7 0-1.4 0.4-0.6 0.3-1 1-0.5 0.7-0.5 1.4-0.1 0.7 0.3 1.4 0.3 0.6 0.9 1 0.7 0.4 1.4 0.4 0.7 0 1.3-0.3 0.6-0.4 1.1-1 0.4-0.7 0.5-1.4z"/><path class="a" d="m21.6 101.6l9.1-9.7-1-0.9-9.1 9.6z"/><path class="a" d="m16.4 96.2l10.3-8.3-0.9-1.1-10.3 8.4z"/><path class="a" d="m22.7 82.4q-0.6-1.1-1.5-1.7-0.9-0.6-2-0.6l-0.1 1.3q0.8 0 1.4 0.4 0.6 0.3 1 1 0.4 0.7 0.3 1.4 0 0.7-0.4 1.2-0.5 0.6-1.3 1-0.8 0.4-1.4 0.5-0.7 0-1.3-0.3-0.5-0.4-0.9-1-0.3-0.6-0.3-1.2 0-0.6 0.3-1 0.3-0.5 0.9-0.9 0.1 0 0.3-0.1 0.2 0 0.3 0l-0.9-0.1 2.6 4.9 1.1-0.5-3.2-5.9q-0.1 0-0.2 0.1-0.1 0-0.2 0.1-1.1 0.6-1.7 1.4-0.6 0.8-0.6 1.8 0 0.9 0.5 1.9 0.6 1 1.5 1.6 0.8 0.5 1.9 0.5 1 0 2.1-0.6 1-0.6 1.6-1.4 0.6-0.9 0.7-1.9 0-1-0.5-1.9z"/><path class="a" d="m15.1 76.7q-0.8 0.2-1.5 0.1-0.7-0.2-1.2-0.7-0.5-0.5-0.7-1.2-0.2-0.6-0.1-1.2 0-0.6 0.2-1.1 0.2-0.5 0.5-0.7l-1.6 0.4q-0.3 0.6-0.4 1.4 0 0.8 0.2 1.5 0.3 1.1 1 1.9 0.8 0.7 1.8 1 1 0.2 2.2-0.1 1.1-0.3 1.9-1.1 0.7-0.7 1-1.7 0.2-1.1-0.1-2.2-0.2-0.7-0.6-1.4-0.5-0.7-1.1-0.9l-1.6 0.4q0.4 0.1 0.8 0.4 0.5 0.3 0.8 0.8 0.3 0.5 0.5 1.1 0.2 0.7 0 1.4-0.2 0.7-0.7 1.2-0.5 0.5-1.3 0.7z"/><path class="a" d="m8.8 67.6l1.2-0.1-0.3-3.9-1.3 0.2zm-2.8-1.1l10.5-0.9-0.1-1.4-10.5 1z"/><path class="a" d="m5 58.9q0.4 0 0.7-0.2 0.3-0.3 0.3-0.7 0-0.4-0.3-0.6-0.2-0.3-0.6-0.4-0.4 0-0.7 0.3-0.3 0.2-0.3 0.6 0 0.4 0.2 0.7 0.3 0.3 0.7 0.3zm3.2-0.1l7.8 0.5 0.1-1.4-7.8-0.4z"/><path fill-rule="evenodd" class="a" d="m10 53.8q-0.7-0.8-1-1.8-0.3-1 0-2.1 0.3-1.1 1-1.9 0.7-0.7 1.8-1 1-0.3 2.1 0 1.2 0.3 1.9 1 0.8 0.8 1.1 1.8 0.3 1 0 2.1-0.3 1.1-1 1.9-0.8 0.7-1.8 1-1 0.3-2.2 0-1.1-0.3-1.9-1zm3.7-0.3q0.7-0.2 1.3-0.6 0.4-0.5 0.6-1.3 0.2-0.7 0-1.4-0.2-0.7-0.7-1.2-0.5-0.5-1.3-0.7-0.8-0.2-1.5 0-0.7 0.2-1.2 0.7-0.5 0.5-0.7 1.2-0.2 0.8 0 1.4 0.2 0.7 0.7 1.2 0.6 0.5 1.4 0.7 0.7 0.2 1.4 0z"/><path class="a" d="m16.6 38.1l4.2 2.2 0.6-1.2-4.4-2.3q-1.2-0.7-2.3-0.4-1 0.2-1.6 1.3-0.4 0.7-0.4 1.4 0.1 0.7 0.5 1.3l-1.1-0.5-0.6 1.2 6.9 3.6 0.6-1.2-4.2-2.2q-0.5-0.3-0.8-0.7-0.2-0.4-0.2-0.9 0-0.5 0.2-1.1 0.4-0.7 1.1-0.8 0.6-0.2 1.5 0.3z"/></svg>