<svg width="70" height="40" viewBox="0 0 70 40" fill="none" xmlns="http://www.w3.org/2000/svg">
<path d="M59.0618 4.89645H49.5591C49.197 4.89645 48.8679 5.04445 48.6291 5.28272C48.3909 5.52151 48.2429 5.85007 48.2429 6.2122V30.2257C48.2429 30.5879 48.3909 30.9169 48.6291 31.1552C48.8679 31.394 49.197 31.542 49.5591 31.542H51.3016L51.3026 31.532L51.3047 31.5147L51.3126 31.4507L51.3163 31.4239L51.3231 31.373L51.3294 31.3279L51.3347 31.2938L51.3415 31.2486L51.3478 31.2108L51.3551 31.1647L51.3557 31.1605L51.3683 31.0896L51.3693 31.0849L51.3835 31.0098V31.0093L51.3934 30.9579L51.3987 30.9301L51.4087 30.8813L51.416 30.8466L51.4244 30.8078L51.4349 30.7605L51.4428 30.7254L51.4517 30.6886L51.4632 30.6404L51.4643 30.6372L51.4811 30.5711L51.4832 30.5637L51.5026 30.4908L51.522 30.421L51.5231 30.4173L51.5388 30.3617L51.5456 30.3375L51.5593 30.2919L51.5724 30.2488L51.5808 30.2215L51.596 30.1727L51.6081 30.136L51.6181 30.1066L51.6338 30.0594L51.6343 30.0583L51.659 29.9875L51.6601 29.9848L51.6847 29.9166L51.6858 29.914L51.6984 29.8794L51.7167 29.8305L51.7283 29.8001L51.7435 29.7607L51.7587 29.723L51.7755 29.681L51.7886 29.6495L51.8138 29.5896L51.8186 29.5776L51.8359 29.5372L51.8716 29.4558L51.8821 29.4317L51.8868 29.4212L51.8947 29.4049L51.9188 29.3529L51.9372 29.3131L51.9482 29.2894L51.9702 29.2433L51.9891 29.2044L52.0022 29.1782L52.0269 29.1294L52.0364 29.11L52.0432 29.0974L52.0762 29.0339L52.0773 29.0318L52.1125 28.9667L52.1172 28.9583L52.1272 28.9399L52.1555 28.889L52.166 28.8701L52.1949 28.8192L52.209 28.7945L52.2337 28.7525L52.2542 28.7179L52.2699 28.6911L52.2951 28.6492L52.2972 28.6455L52.3334 28.5867L52.336 28.5825L52.3754 28.52L52.3791 28.5137L52.4153 28.4581L52.42 28.4508L52.4861 28.3516L52.5098 28.3175L52.5292 28.2891L52.5654 28.2382L52.5727 28.2277L52.6095 28.1763L52.621 28.1611L52.6252 28.1553L52.6688 28.096L52.6719 28.0923L52.7213 28.0272L52.7323 28.0125L52.768 27.9669L52.7874 27.9422L52.8199 27.9007L52.8367 27.8803L52.874 27.8341L52.8866 27.8189L52.9254 27.7727L52.938 27.7575L52.9443 27.7501L52.9921 27.6945L52.9936 27.6924L53.0404 27.6389L53.0498 27.6284L53.0892 27.5843L53.0949 27.578L53.1254 27.5449L53.1527 27.5155L53.1747 27.4914L53.2109 27.4525L53.2293 27.4331L53.2645 27.3969L53.2823 27.3785L53.2907 27.3701L53.3421 27.3182C54.628 26.0318 56.4051 25.2362 58.3679 25.2362C60.3307 25.2362 62.1078 26.0318 63.3936 27.3182L63.445 27.3701L63.4534 27.3785L63.4713 27.3969L63.5065 27.4331L63.5248 27.4525L63.561 27.4914L63.5831 27.5155L63.6098 27.5449L63.6403 27.578L63.6461 27.5843L63.6854 27.6284L63.6949 27.6389L63.7416 27.6924L63.7431 27.6945L63.7909 27.7501L63.7967 27.7575L63.8093 27.7727L63.8481 27.8189L63.8607 27.8341L63.898 27.8803L63.9148 27.9007L63.9473 27.9422L63.9667 27.9669L64.0019 28.0125L64.0134 28.0272L64.0628 28.0923L64.0659 28.096L64.1095 28.1553L64.1137 28.1611L64.1252 28.1763L64.162 28.2277L64.1693 28.2382L64.2055 28.2891L64.2249 28.3175L64.248 28.3516L64.2717 28.3862L64.3147 28.4508L64.3194 28.4581L64.3556 28.5137L64.3593 28.52L64.3987 28.5825L64.4013 28.5867L64.4375 28.6455L64.4396 28.6492L64.4648 28.6911L64.4805 28.7179L64.501 28.7525L64.5257 28.7945L64.5398 28.8192L64.5687 28.8701L64.5792 28.889L64.6075 28.9399L64.6175 28.9583L64.6222 28.9667L64.6569 29.0318L64.6585 29.0339L64.6915 29.0974L64.6978 29.11L64.7073 29.1294L64.7324 29.1782L64.7456 29.2044L64.7645 29.2433L64.7865 29.2894L64.7975 29.3131L64.8159 29.3529L64.84 29.4049L64.8474 29.4212L64.8526 29.4317L64.8631 29.4558L64.8988 29.5372L64.9161 29.5776L64.9209 29.5896L64.9461 29.6495L64.9754 29.723L64.9907 29.7607L65.0059 29.8001L65.0174 29.8305L65.0353 29.8794L65.0479 29.914L65.0489 29.9166L65.0736 29.9848L65.0746 29.9875L65.0993 30.0583L65.0998 30.0594L65.1156 30.1066L65.125 30.136L65.1371 30.1727L65.1528 30.2215L65.1612 30.2488L65.1744 30.2919L65.188 30.3375L65.1948 30.3617L65.2106 30.4173L65.2116 30.421L65.231 30.4908L65.2505 30.5637L65.252 30.5711L65.2688 30.6372L65.2699 30.6404L65.2814 30.6886L65.2898 30.7254L65.2977 30.7605L65.3082 30.8078L65.3166 30.8466L65.3239 30.8813L65.3339 30.9301L65.3391 30.9579L65.3491 31.0093V31.0098L65.3633 31.0849L65.3643 31.0896L65.3769 31.1605L65.3775 31.1647L65.3848 31.2108L65.3911 31.2486L65.3979 31.2938L65.4032 31.3279L65.4095 31.373L65.4163 31.4239L65.42 31.4507L65.4278 31.5147L65.4299 31.532L65.431 31.542H67.0763C67.4385 31.542 67.767 31.394 68.0058 31.1552C68.2446 30.9169 68.3921 30.5879 68.3921 30.2257V27.5086H65.9432C65.6692 27.5086 65.4199 27.3963 65.2388 27.2158H65.2373C65.0567 27.0347 64.9444 26.7849 64.9444 26.5099V23.7225C64.9444 23.4475 65.0567 23.1977 65.2378 23.0161L65.2388 23.0172C65.4204 22.8356 65.6702 22.7233 65.9437 22.7233H68.3926V17.3396L60.1496 5.45899C60.0205 5.27267 59.862 5.13044 59.683 5.03703C59.5066 4.94466 59.2983 4.89637 59.0668 4.89637L59.0618 4.89645ZM14.184 39.1883C13.8875 39.1883 13.6466 38.9474 13.6466 38.6503C13.6466 38.3538 13.8875 38.1129 14.184 38.1129H20.0133C19.7052 37.8904 19.415 37.6432 19.1468 37.375C18.0394 36.2676 17.2958 34.796 17.1105 33.1554H12.418C11.5321 33.1554 10.7281 32.7938 10.1455 32.2112C9.56241 31.6286 9.20132 30.8241 9.20132 29.9387V25.3412C9.20132 24.4558 9.56293 23.6512 10.1455 23.0686C10.728 22.4861 11.5326 22.1245 12.418 22.1245H15.9696V0.806139C15.9696 0.361083 16.3307 0 16.7757 0H41.1869C41.632 0 41.9931 0.361083 41.9931 0.806139V22.1245H45.0266C45.6102 22.1245 46.1586 22.2814 46.6315 22.5554V6.21358C46.6315 5.4064 46.96 4.67426 47.4901 4.14423C48.0202 3.61415 48.7523 3.28561 49.5594 3.28561H59.0621C59.5481 3.28561 60.0078 3.39897 60.4214 3.6152C60.8323 3.83038 61.1876 4.14423 61.4674 4.5473L69.8179 16.5827C69.9318 16.7218 70 16.8997 70 17.0928V30.2278C70 31.035 69.6715 31.7671 69.1414 32.2971C68.6113 32.8272 67.8792 33.1558 67.072 33.1558H65.4267C65.2414 34.7964 64.4977 36.268 63.3904 37.3754C63.1222 37.6435 62.8325 37.8907 62.5239 38.1133H66.9204C67.217 38.1133 67.4579 38.3542 67.4579 38.6507C67.4579 38.9477 67.217 39.1886 66.9204 39.1886H60.307C59.6893 39.3634 59.038 39.4574 58.3646 39.4574C57.6913 39.4574 57.0394 39.3634 56.4222 39.1886H49.4205C49.1235 39.1886 48.8826 38.9477 48.8826 38.6507C48.8826 38.3542 49.1235 38.1133 49.4205 38.1133H54.2059C53.8973 37.8907 53.6076 37.6435 53.3394 37.3754C52.232 36.268 51.4878 34.7964 51.3031 33.1558H49.5606C48.7534 33.1558 48.0208 32.8272 47.4913 32.2971C47.4451 32.2504 47.3999 32.2027 47.3569 32.1533C47.3385 32.1733 47.3196 32.1927 47.3002 32.2116C46.7171 32.7941 45.9131 33.1558 45.0277 33.1558H31.236C31.0508 34.7964 30.3071 36.268 29.1997 37.3754C28.9315 37.6435 28.6418 37.8907 28.3332 38.1133H41.8293C42.1264 38.1133 42.3668 38.3542 42.3668 38.6507C42.3668 38.9477 42.1264 39.1886 41.8293 39.1886H26.1163C25.4991 39.3634 24.8473 39.4574 24.1739 39.4574C23.5006 39.4574 22.8487 39.3634 22.2316 39.1886H14.1859L14.184 39.1883ZM46.2522 39.1883C45.9552 39.1883 45.7148 38.9474 45.7148 38.6503C45.7148 38.3538 45.9552 38.1129 46.2522 38.1129H47.1371C47.4341 38.1129 47.6745 38.3538 47.6745 38.6503C47.6745 38.9474 47.4341 39.1883 47.1371 39.1883H46.2522ZM33.9685 19.4311C33.746 19.4311 33.5655 19.2506 33.5655 19.0281C33.5655 18.8055 33.746 18.625 33.9685 18.625H37.001C37.2235 18.625 37.404 18.8055 37.404 19.0281C37.404 19.2506 37.2235 19.4311 37.001 19.4311H33.9685ZM17.5824 22.124H40.3814V1.61183H32.3841V8.03622C32.3841 8.33275 32.1437 8.57365 31.8466 8.57365C31.7196 8.57365 31.6031 8.52957 31.5113 8.45609L28.9963 6.68957L26.4204 8.47718C26.1769 8.64513 25.8431 8.58425 25.6751 8.34073C25.6111 8.24784 25.5801 8.14129 25.5801 8.03633H25.5785V1.61194H17.5816V22.1241L17.5824 22.124ZM46.6316 25.3412C46.6316 24.9009 46.4506 24.4994 46.1593 24.2081C45.868 23.9168 45.467 23.7363 45.0267 23.7363H12.4184C11.9775 23.7363 11.5766 23.9168 11.2853 24.2081C10.994 24.4994 10.8129 24.9003 10.8129 25.3412V29.9388C10.8129 30.3791 10.994 30.7801 11.2853 31.0713C11.5766 31.3626 11.9775 31.5437 12.4184 31.5437H17.1109C17.2962 29.9031 18.0399 28.4314 19.1472 27.3241C20.4336 26.0377 22.2107 25.2421 24.173 25.2421C26.1358 25.2421 27.9129 26.0377 29.1987 27.3241C30.3061 28.4315 31.0503 29.9031 31.235 31.5437H45.0267C45.467 31.5437 45.8685 31.3626 46.1593 31.0713C46.4506 30.7806 46.6316 30.3791 46.6316 29.9388V25.3412ZM68.388 26.7043V23.5306H65.9391C65.8855 23.5306 65.8372 23.5516 65.8031 23.5857V23.5873C65.768 23.6225 65.7459 23.6707 65.7459 23.7238V26.5111C65.7459 26.5636 65.7675 26.6124 65.8026 26.647L65.8021 26.6476C65.8367 26.6822 65.8855 26.7037 65.9391 26.7037H68.388L68.388 26.7043ZM0.403593 16.9466C0.181072 16.9466 0 16.7661 0 16.5435C0 16.321 0.180548 16.1405 0.403593 16.1405H0.816633C1.03915 16.1405 1.2197 16.321 1.2197 16.5435C1.2197 16.7661 1.03915 16.9466 0.816633 16.9466H0.403593ZM4.11519 16.9466C3.89267 16.9466 3.71212 16.7661 3.71212 16.5435C3.71212 16.321 3.89267 16.1405 4.11519 16.1405H12.5424C12.765 16.1405 12.9455 16.321 12.9455 16.5435C12.9455 16.7661 12.765 16.9466 12.5424 16.9466H4.11519ZM6.10797 11.574C5.88545 11.574 5.7049 11.3934 5.7049 11.1704C5.7049 10.9479 5.88545 10.7673 6.10797 10.7673H12.5424C12.765 10.7673 12.9455 10.9479 12.9455 11.1704C12.9455 11.3929 12.765 11.574 12.5424 11.574H6.10797ZM26.6524 1.61264V7.01216L28.6688 5.61351C28.8499 5.47285 29.1086 5.45974 29.306 5.59881L31.3076 7.00485V1.61326H26.6524L26.6524 1.61264ZM51.2974 20.6939C51.0749 20.6939 50.8944 20.5134 50.8944 20.2909C50.8944 20.0684 51.0749 19.8878 51.2974 19.8878H53.2933C53.5158 19.8878 53.6964 20.0684 53.6964 20.2909C53.6964 20.5134 53.5158 20.6939 53.2933 20.6939H51.2974ZM24.1722 29.9562C24.833 29.9562 25.4318 30.2239 25.8648 30.6574L25.8953 30.6905C26.3104 31.1208 26.566 31.706 26.566 32.35C26.566 33.0092 26.2983 33.6075 25.8648 34.0405L25.8627 34.0426C25.4297 34.4756 24.8314 34.7438 24.1722 34.7438C23.5115 34.7438 22.9132 34.4756 22.4796 34.0426L22.4487 34.009C22.0335 33.5776 21.7784 32.9929 21.7784 32.35C21.7784 31.6913 22.0466 31.0925 22.4807 30.6584L22.4796 30.6574C22.9126 30.2244 23.5114 29.9562 24.1722 29.9562L24.1722 29.9562ZM25.1048 31.4173C24.8666 31.1791 24.5364 31.0311 24.1722 31.0311C23.808 31.0311 23.4784 31.1791 23.2396 31.4173L23.2385 31.4163L23.2375 31.4173C23.0003 31.6546 22.8533 31.9842 22.8533 32.35C22.8533 32.7037 22.9908 33.0244 23.2149 33.2595L23.2396 33.2826C23.4778 33.5214 23.808 33.6689 24.1722 33.6689C24.5375 33.6689 24.8676 33.5214 25.1059 33.2836C25.3436 33.0454 25.4911 32.7152 25.4911 32.35C25.4911 31.9968 25.3531 31.6761 25.1284 31.4394L25.1048 31.4173ZM28.058 28.4642C27.0634 27.4696 25.6899 26.8546 24.1721 26.8546C22.6548 26.8546 21.2808 27.4697 20.2863 28.4642C19.2917 29.4587 18.6767 30.8328 18.6767 32.35C18.6767 33.8673 19.2918 35.2414 20.2863 36.2359C21.2803 37.2305 22.6543 37.8455 24.1721 37.8455C25.6899 37.8455 27.0635 37.2304 28.058 36.2359C29.0525 35.2414 29.6676 33.8673 29.6676 32.35C29.6676 30.8328 29.0525 29.4587 28.058 28.4642ZM58.3648 29.9562C59.0255 29.9562 59.6238 30.2239 60.0574 30.6574L60.0878 30.6905C60.503 31.1208 60.7586 31.706 60.7586 32.35C60.7586 33.0092 60.4904 33.6075 60.0574 34.0405L60.0553 34.0426C59.6223 34.4756 59.024 34.7438 58.3648 34.7438C57.704 34.7438 57.1058 34.4756 56.6722 34.0426L56.6412 34.009C56.2261 33.5776 55.971 32.9929 55.971 32.35C55.971 31.6913 56.2392 31.0925 56.6732 30.6584L56.6722 30.6574C57.1052 30.2244 57.704 29.9562 58.3648 29.9562L58.3648 29.9562ZM59.2974 31.4173C59.0586 31.1791 58.729 31.0311 58.3648 31.0311C58.0005 31.0311 57.6709 31.1791 57.4322 31.4173L57.4311 31.4163L57.43 31.4173C57.1928 31.6546 57.0459 31.9842 57.0459 32.35C57.0459 32.7037 57.1839 33.0244 57.408 33.2595L57.4321 33.2826C57.6709 33.5214 58.0005 33.6689 58.3648 33.6689C58.7301 33.6689 59.0602 33.5214 59.2984 33.2836C59.5367 33.0454 59.6837 32.7152 59.6837 32.35C59.6837 31.9968 59.5456 31.6761 59.321 31.4394L59.2974 31.4173ZM52.8692 32.35C52.8692 33.8673 53.4843 35.2413 54.4788 36.2358C55.4734 37.2304 56.8474 37.8454 58.3647 37.8454C59.882 37.8454 61.256 37.2303 62.2505 36.2358C63.2446 35.2413 63.8597 33.8673 63.8597 32.35C63.8597 30.8327 63.2446 29.4586 62.2505 28.4641C61.256 27.4696 59.882 26.8545 58.3647 26.8545C56.8474 26.8545 55.4733 27.4696 54.4788 28.4641C53.4848 29.4587 52.8692 30.8327 52.8692 32.35ZM63.7678 16.5564L57.9806 7.86256H51.8354V16.5564H63.7678ZM58.7138 7.02914L65.1965 16.7669C65.2663 16.8577 65.3072 16.9711 65.3072 17.0939C65.3072 17.3909 65.0663 17.6313 64.7698 17.6313H51.2978C51.0013 17.6313 50.7604 17.3909 50.7604 17.0939V7.32521C50.7604 7.02868 51.0013 6.78778 51.2978 6.78778H58.2665V6.78936C58.4402 6.78936 58.6108 6.87386 58.7137 7.02974L58.7138 7.02914Z" fill="#222222"/>
</svg>
