<svg width="45" height="45" viewBox="0 0 45 45" fill="none" xmlns="http://www.w3.org/2000/svg">
<path d="M4.50015 27.7499C4.30127 27.7499 4.11042 27.8289 3.96979 27.9695C3.82917 28.1101 3.75015 28.301 3.75015 28.4999V35.9998C3.75015 36.1987 3.82917 36.3896 3.96979 36.5302C4.11042 36.6708 4.30127 36.7498 4.50015 36.7498H15.0001C15.199 36.7498 15.3898 36.6708 15.5304 36.5302C15.6711 36.3896 15.7501 36.1987 15.7501 35.9998V28.4999C15.7501 28.301 15.6711 28.1101 15.5304 27.9695C15.3898 27.8289 15.199 27.7499 15.0001 27.7499H4.50015ZM14.2501 35.2498H5.25014V29.2499H14.2501V35.2498ZM27.75 38.9998H1.50016V8.22426H12.7501V16.5C12.7501 16.6989 12.8291 16.8897 12.9697 17.0304L15.2197 19.2804C15.3604 19.421 15.5512 19.5 15.7501 19.5C15.949 19.5 16.1398 19.421 16.2804 19.2804L18 17.5604L19.7196 19.28V19.2803C19.8602 19.421 20.0511 19.5 20.25 19.5C20.4489 19.5 20.6397 19.421 20.7803 19.2803L22.4999 17.5604L24.2195 19.28V19.2803C24.3601 19.421 24.551 19.5 24.7499 19.5C24.9488 19.5 25.1396 19.421 25.2802 19.2803L27.5302 17.0304C27.6708 16.8897 27.7499 16.6989 27.7499 16.5V8.22424H38.9998V26.9999C38.9998 27.414 39.3356 27.7499 39.7498 27.7499C40.164 27.7499 40.4998 27.414 40.4998 26.9999V7.49996C40.4998 7.33322 40.4442 7.17084 40.3414 7.03925L35.0914 0.289284C34.9495 0.106808 34.7312 0 34.4998 0H5.99997C5.76861 0 5.55031 0.106808 5.40835 0.289284L0.158374 7.03925C0.0555856 7.17084 0 7.33322 0 7.49996V39.7498C0 39.9487 0.0790179 40.1395 0.219642 40.2801C0.360266 40.4208 0.551114 40.4998 0.749996 40.4998H27.7499C28.164 40.4998 28.4999 40.164 28.4999 39.7498C28.4999 39.3356 28.164 38.9998 27.7499 38.9998L27.75 38.9998ZM26.25 16.1896L24.75 17.6896L23.0305 15.97V15.9697C22.8898 15.8291 22.699 15.7501 22.5001 15.7501C22.3012 15.7501 22.1104 15.8291 21.9697 15.9697L20.2502 17.6896L18.5306 15.9701V15.9697C18.3899 15.8291 18.1991 15.7501 18.0002 15.7501C17.8013 15.7501 17.6105 15.8291 17.4699 15.9697L15.7503 17.6897L14.2503 16.1897V8.22428H26.2502L26.25 16.1896ZM14.5492 6.72427L16.2906 1.50009H24.2098L25.9512 6.72427H14.5492ZM38.1968 6.72427H27.5315L25.7901 1.50009H34.1328L38.1968 6.72427ZM6.367 1.50009H14.7097L12.9683 6.72427H2.30296L6.367 1.50009ZM36 28.5H33V24.75C33 24.4466 32.8172 24.1731 32.5369 24.0572C32.2567 23.941 31.9343 24.0053 31.7197 24.2196L24.2197 31.7196C24.0791 31.8602 24 32.0511 24 32.2499C24 32.4488 24.0791 32.6397 24.2197 32.7803L31.7197 40.2803C31.9343 40.4945 32.2567 40.5588 32.5369 40.4426C32.8172 40.3268 33 40.0532 33 39.7499V35.9999H36C38.4813 35.9999 40.5 37.6824 40.5 39.7499C40.5 41.6695 38.7743 43.2722 36.4865 43.4771C36.0867 43.5126 35.7857 43.8564 35.8035 44.2572C35.8209 44.658 36.151 44.9741 36.5521 44.9741C36.5675 44.9741 36.5829 44.9734 36.5983 44.9727C41.3092 44.6885 45 41.0764 45 36.7498C45 32.2007 40.9631 28.4999 36 28.4999L36 28.5ZM41.8373 40.9739C41.9454 40.5751 42 40.1636 42 39.7502C42 36.8556 39.3084 34.5002 36 34.5002H32.25C32.0512 34.5002 31.8603 34.5792 31.7197 34.7198C31.5791 34.8604 31.5 35.0513 31.5 35.2502V37.9398L25.8104 32.2502L31.5 26.5606V29.2502C31.5 29.4491 31.5791 29.6399 31.7197 29.7806C31.8603 29.9212 32.0512 30.0002 32.25 30.0002H36C40.1354 30.0002 43.5 33.028 43.5 36.7502C43.4886 38.3155 42.8963 39.8208 41.8373 40.9739H41.8373Z" fill="#222222"/>
</svg>
