<svg width="45" height="45" viewBox="0 0 45 45" fill="none" xmlns="http://www.w3.org/2000/svg">
<path d="M5.62626 0C2.52248 0 9.21927e-07 2.52248 9.21927e-07 5.62625V31.6393C-0.000940778 32.2483 0.719756 32.5707 1.17273 32.1638L8.00369 26.0144H9.14058V33.0456C9.14058 36.1494 11.6631 38.6718 14.7668 38.6718H36.9951L43.8257 44.8173C44.279 45.226 45.0022 44.903 45 44.2928V18.2805C45 15.1764 42.4763 12.6539 39.3722 12.6539H35.8594V5.62682C35.8594 2.52304 33.3369 0.000562497 30.2332 0.000562497L5.62626 0ZM30.2331 1.40624C32.5822 1.40624 34.4531 3.27703 34.4531 5.62625V20.3934C34.4531 22.2479 33.2823 23.7988 31.6378 24.3717C31.6299 23.8572 31.5694 23.4756 31.3948 23.1384C31.1933 22.7488 30.8107 22.5367 30.5916 22.4434C30.3725 22.3505 30.2695 22.3129 30.144 22.2046C30.0184 22.0963 29.8486 21.8922 29.6509 21.4054C29.4531 20.9185 29.4346 20.652 29.449 20.4866C29.4622 20.3212 29.5121 20.2267 29.6041 20.0032C29.6961 19.7797 29.8138 19.3537 29.6822 18.9347C29.5507 18.516 29.2754 18.1587 28.8156 17.6933C28.3557 17.2278 28.0017 16.949 27.5852 16.8115C27.1686 16.674 26.7424 16.7801 26.5167 16.8677C26.291 16.9553 26.1959 17.0071 26.0276 17.0187C25.8597 17.0293 25.591 17.0055 25.1048 16.8002C24.6208 16.5959 24.4227 16.4226 24.3207 16.2977C24.2187 16.1724 24.1901 16.0688 24.0928 15.835C23.9952 15.6011 23.7519 15.2044 23.3498 15.0097C22.9477 14.8148 22.4847 14.7668 21.7926 14.7668C21.1005 14.7668 20.6431 14.8151 20.2408 15.0097C19.8387 15.2046 19.5967 15.6011 19.4993 15.835C19.4017 16.0688 19.3719 16.1727 19.2699 16.2977C19.1679 16.4229 18.9714 16.5959 18.487 16.8002C18.0005 17.0055 17.7309 17.0303 17.5629 17.0187C17.395 17.008 17.3011 16.9553 17.0755 16.8677C16.8498 16.7801 16.4222 16.674 16.0058 16.8115C15.5892 16.949 15.2351 17.2274 14.7753 17.6933C14.3155 18.1588 14.0402 18.5159 13.9087 18.9347C13.7772 19.3537 13.8955 19.7797 13.9868 20.0032C14.0788 20.2267 14.1278 20.3212 14.1419 20.4866C14.1551 20.652 14.1366 20.9182 13.9401 21.4054C13.7423 21.8922 13.5725 22.0963 13.4469 22.2046C13.3214 22.3129 13.22 22.3505 13.0006 22.4434C12.7815 22.5363 12.3973 22.7489 12.1957 23.1384C11.9955 23.5257 11.9462 23.9686 11.9512 24.6077H7.7312C7.55856 24.6087 7.39251 24.6733 7.26413 24.7888L1.40653 30.0613V5.62641C1.40653 3.27726 3.27611 1.40639 5.6259 1.40639L30.2331 1.40624ZM4.92072 6.3268C4.53244 6.32837 4.21886 6.64446 4.22043 7.03275C4.222 7.41884 4.53464 7.73148 4.92072 7.73305H30.9386C31.3247 7.73148 31.6373 7.41884 31.6389 7.03275C31.6405 6.64447 31.3269 6.32838 30.9386 6.3268H4.92072ZM4.92072 10.5468C4.53432 10.5484 4.22168 10.861 4.22011 11.2471C4.21885 11.6354 4.53243 11.9515 4.92072 11.9531H30.9386C31.3269 11.9515 31.6405 11.6354 31.6389 11.2471C31.6377 10.861 31.325 10.5484 30.9386 10.5468H4.92072ZM35.8597 14.0611H39.3724C41.7216 14.0611 43.5925 15.9307 43.5925 18.2799V42.7203L37.7327 37.4469C37.6046 37.3311 37.4386 37.2665 37.2659 37.2655H14.7677C12.4185 37.2655 10.5477 35.3947 10.5477 33.0455V26.0143L12.1708 26.0184C12.377 26.4585 12.6793 26.638 13.0029 26.7777C13.222 26.8706 13.3237 26.9026 13.4492 27.0112C13.5748 27.1195 13.7446 27.3276 13.9424 27.8145C14.1401 28.3013 14.1586 28.5678 14.1442 28.7333C14.131 28.8987 14.0811 28.9932 13.9891 29.2167C13.8972 29.4401 13.7659 29.847 13.911 30.2864C14.0425 30.7051 14.3178 31.0554 14.7776 31.5209C15.2375 31.9864 15.5915 32.2708 16.008 32.4079C16.4491 32.5567 16.8521 32.4334 17.0777 32.3448C17.3034 32.2573 17.3973 32.2111 17.5652 32.1992C17.7331 32.1885 18.0031 32.2124 18.4893 32.4177C18.9733 32.6223 19.1702 32.7965 19.2722 32.9218C19.3742 33.047 19.404 33.1494 19.5016 33.3832C19.6175 33.6871 19.841 34.0082 20.243 34.2031C20.6451 34.398 21.1013 34.4517 21.7934 34.4517C22.4855 34.4517 22.9485 34.398 23.3506 34.2031C23.7527 34.0082 23.9985 33.6547 24.0936 33.3832C24.1912 33.1494 24.2195 33.0467 24.3215 32.9218C24.4235 32.7965 24.6216 32.6223 25.1056 32.4177C25.5918 32.2124 25.8605 32.1876 26.0284 32.1992C26.1963 32.2099 26.2914 32.257 26.5174 32.3448C26.7868 32.4541 27.1694 32.5451 27.5859 32.4079C28.0025 32.2705 28.3565 31.9864 28.8164 31.5209C29.2762 31.0554 29.5515 30.7051 29.683 30.2864C29.8145 29.8673 29.731 29.4834 29.6048 29.2167C29.5129 28.9932 29.4639 28.8987 29.4498 28.7333C29.4366 28.5678 29.4564 28.3017 29.6532 27.8145C29.8509 27.3276 30.0493 27.0881 30.1463 27.0112C30.258 26.9161 30.3748 26.8709 30.5939 26.7777C30.813 26.6848 31.1809 26.5106 31.3959 26.0758C31.4295 26.0111 31.4596 25.9446 31.4851 25.8768C33.9924 25.3096 35.8598 23.0681 35.8598 20.3934L35.8597 14.0611ZM4.92072 14.7668C4.53463 14.7683 4.222 15.081 4.22043 15.4671C4.21886 15.8553 4.53244 16.1714 4.92072 16.173H13.3606C13.7489 16.1714 14.0625 15.8553 14.0609 15.4671C14.0593 15.081 13.7467 14.7683 13.3606 14.7668H4.92072ZM21.794 16.1717C22.392 16.172 22.6792 16.2373 22.7567 16.2913C22.838 16.4436 22.9664 16.8752 23.2319 17.1853C23.5047 17.5196 23.9247 17.8266 24.5556 18.0931C25.1844 18.3586 25.6991 18.4512 26.1279 18.4214C26.4305 18.4195 26.9585 18.2098 27.1443 18.1455C27.192 18.1615 27.4236 18.2908 27.8132 18.6851C28.2027 19.0793 28.3239 19.3085 28.3349 19.3414C28.3455 19.3744 28.3333 19.3929 28.3019 19.4692C28.2391 19.6214 28.0853 19.9337 28.048 20.3619C28.0106 20.79 28.0925 21.3032 28.3487 21.9341C28.6048 22.565 28.9002 22.9916 29.2263 23.2732C29.5525 23.5544 29.8864 23.6706 30.0406 23.7359C30.1178 23.7685 30.1385 23.7738 30.1435 23.7811C30.162 23.8228 30.2374 24.0598 30.2327 24.6078C30.238 25.1559 30.1624 25.3982 30.1435 25.4399C30.1382 25.4478 30.1156 25.4534 30.0406 25.4839C29.8864 25.5492 29.5522 25.6653 29.2263 25.9466C28.9005 26.2278 28.6051 26.6544 28.3487 27.2856C28.0925 27.9166 28.0106 28.4228 28.048 28.851C28.0853 29.2791 28.2394 29.5968 28.3019 29.749C28.3333 29.825 28.3449 29.8448 28.343 29.8561C28.3245 29.9091 28.2021 30.1402 27.8128 30.5344C27.4233 30.9286 27.1916 31.053 27.1439 31.0686C27.0962 31.0847 27.1788 31.0985 27.0243 31.0385C26.8699 30.9789 26.5551 30.8295 26.1263 30.7996C25.6972 30.7698 25.1827 30.8555 24.554 31.1211C23.9231 31.3876 23.5028 31.6999 23.23 32.0342C22.9572 32.3685 22.8543 32.6999 22.7946 32.843C22.735 32.9862 22.7971 32.9074 22.7369 32.9363C22.6769 32.9651 22.39 33.0449 21.792 33.0449C21.194 33.0449 20.9128 32.9655 20.8526 32.9363C20.7926 32.9074 20.8554 32.9859 20.7964 32.843C20.7367 32.6999 20.6322 32.3672 20.3598 32.0329C20.087 31.6986 19.667 31.3862 19.036 31.1198C18.4073 30.8542 17.8926 30.7701 17.4638 30.7999C17.0347 30.8297 16.7199 30.9776 16.5657 31.0375C16.4113 31.0972 16.4938 31.0849 16.4461 31.0692C16.3984 31.0532 16.1668 30.9295 15.7772 30.535C15.3877 30.1407 15.2668 29.9103 15.247 29.8567C15.2445 29.8435 15.2577 29.8268 15.2882 29.7509C15.3509 29.5986 15.506 29.281 15.5437 28.8528C15.581 28.4247 15.4979 27.9171 15.2414 27.2859C14.9853 26.6549 14.6911 26.2284 14.3654 25.9468C14.0392 25.6656 13.7037 25.5494 13.5496 25.4841C13.4742 25.4521 13.4538 25.4477 13.4479 25.4402C13.43 25.3981 13.3546 25.1592 13.3594 24.609C13.354 24.0587 13.4306 23.822 13.4485 23.7794C13.4538 23.7715 13.4749 23.7681 13.5515 23.7342C13.7056 23.6689 14.0411 23.5527 14.3672 23.2715C14.6931 22.9902 14.9872 22.5637 15.2433 21.9324C15.4994 21.3015 15.5829 20.7883 15.5452 20.3602C15.5079 19.932 15.3525 19.6197 15.2897 19.4675C15.2583 19.3915 15.2467 19.3733 15.2486 19.3617C15.2671 19.3087 15.3892 19.0776 15.7788 18.6834C16.1683 18.2891 16.4 18.1595 16.4477 18.1438C16.4954 18.1278 16.4128 18.1199 16.5673 18.1808C16.7214 18.2405 17.0366 18.3899 17.4654 18.4197C17.8944 18.4495 18.4089 18.3569 19.0376 18.0914C19.6685 17.8249 20.0888 17.5179 20.3613 17.1836C20.6341 16.8493 20.8325 16.2993 20.8325 16.2993C20.8912 16.2422 21.1957 16.1691 21.7939 16.1716L21.794 16.1717ZM4.92072 18.987C4.53432 18.9886 4.22168 19.3012 4.22011 19.6873C4.21854 20.0756 4.53212 20.3917 4.9204 20.3933H11.2843C11.6747 20.3948 11.9918 20.0778 11.9902 19.6873C11.9886 19.299 11.6725 18.9854 11.2843 18.987H4.92072ZM37.9658 18.987C37.5794 18.9886 37.2668 19.3012 37.2652 19.6873C37.2636 20.0756 37.5772 20.3917 37.9655 20.3933H40.0789C40.4672 20.3917 40.7808 20.0756 40.7796 19.6873C40.778 19.3012 40.4654 18.9886 40.0789 18.987H37.9658ZM21.794 20.3933C19.4724 20.3933 17.5794 22.2864 17.5794 24.6079C17.5794 26.9294 19.4725 28.8253 21.794 28.8253C24.1155 28.8253 26.0127 26.9294 26.0127 24.6079C26.0127 22.2864 24.1156 20.3933 21.794 20.3933ZM21.794 21.7942C23.3557 21.7942 24.6065 23.0463 24.6065 24.608C24.6065 26.1696 23.3557 27.4205 21.794 27.4205C20.2324 27.4205 18.9868 26.1696 18.9868 24.608C18.9868 23.0463 20.2324 21.7942 21.794 21.7942ZM37.9658 23.2004C37.5766 23.2017 37.263 23.5187 37.2652 23.9073C37.2668 24.2934 37.5794 24.6061 37.9655 24.6076H40.0789C40.465 24.6061 40.7777 24.2934 40.7792 23.9073C40.7814 23.5184 40.4679 23.2017 40.0789 23.2001L37.9658 23.2004ZM32.3396 27.4205C31.9513 27.422 31.6377 27.7365 31.6393 28.1248C31.6408 28.5109 31.9535 28.8236 32.3396 28.8251H40.0789C40.4653 28.8235 40.7779 28.5109 40.7795 28.1248C40.781 27.7365 40.4675 27.4217 40.0792 27.4205H32.3396ZM30.9386 31.6392C30.5503 31.6376 30.2342 31.9512 30.2327 32.3395C30.2311 32.73 30.5481 33.047 30.9386 33.0454H40.0792C40.4675 33.0438 40.7811 32.7278 40.7795 32.3395C40.7779 31.9534 40.4653 31.6404 40.0792 31.6392H30.9386Z" fill="#222222"/>
</svg>
