<svg width="40" height="44" viewBox="0 0 40 44" fill="none" xmlns="http://www.w3.org/2000/svg">
<path fill-rule="evenodd" clip-rule="evenodd" d="M32.6219 5.12617C32.6219 4.24039 32.4485 3.44905 32.0997 2.7531C31.6414 1.86732 30.914 1.42374 29.9174 1.42374C28.6359 1.42374 27.1175 2.25461 25.362 3.91534C23.3214 5.81373 21.5029 6.76344 19.9051 6.76344C19.2255 6.76344 18.5135 6.44676 17.77 5.81373L15.8964 4.0576C14.2038 2.49129 12.4959 1.70792 10.7708 1.70792C8.88847 1.70792 7.50495 2.0323 6.61952 2.68008C5.66981 3.37638 5.19581 4.4998 5.19581 6.05043C5.19581 6.79393 5.37859 7.48956 5.74247 8.13864H31.6739C32.3063 7.15842 32.6223 6.15386 32.6223 5.12617H32.6219ZM33.3095 8.13932H34.2824C35.8952 8.13932 37.2397 8.69301 38.3155 9.80076C39.4386 10.9085 40 12.2609 40 13.8593V14.9506C40 16.5481 39.4386 17.8935 38.3155 18.9848L37.9593 19.341V37.1637C37.9593 38.8562 37.5402 40.2096 36.7023 41.2219C35.6116 42.5352 33.8318 43.1916 31.3649 43.1916H8.18523C5.71805 43.1916 3.93913 42.5351 2.84716 41.2223C2.00926 40.2103 1.59013 38.8568 1.59013 37.164V18.9377C0.530987 17.8621 0 16.5328 0 14.951L0.000334759 13.8597C0.000334759 12.2769 0.545994 10.9245 1.6376 9.80112C2.39684 9.07302 3.2669 8.57486 4.24738 8.30611C3.9317 7.59441 3.77336 6.84255 3.77336 6.05181C3.77336 3.99437 4.44522 2.48359 5.78959 1.51914C6.92843 0.696634 8.58953 0.284913 10.7715 0.284913C12.8918 0.284913 14.9238 1.19477 16.8698 3.01458L18.72 4.77071C19.1783 5.15033 19.5737 5.34047 19.9057 5.34047C21.1233 5.34047 22.6183 4.51796 24.3902 2.87227C26.4141 0.95708 28.257 0 29.9177 0C31.4991 0 32.6464 0.696299 33.3577 2.08856C33.816 2.95857 34.046 3.97126 34.046 5.12648C34.046 6.12272 33.8003 7.12771 33.3099 8.13963L33.3095 8.13932ZM37.3196 10.7977C36.4817 9.97518 35.4687 9.56346 34.2826 9.56346H24.3896V19.2465H34.4009C35.2877 19.2465 36.0864 18.9774 36.7975 18.4394H36.8209L37.3197 17.9888C38.1576 17.1506 38.5774 16.1383 38.5774 14.9516L38.5777 13.8593C38.5777 12.6562 38.1576 11.6358 37.3197 10.7975L37.3196 10.7977ZM34.4008 27.9322C34.2743 27.9322 34.1638 27.8847 34.0691 27.7896C33.9747 27.6952 33.9265 27.5837 33.9265 27.4575L33.9268 20.6703H22.8006V41.7684H31.3651C33.1363 41.7684 34.4412 41.3968 35.2791 40.6526C36.118 39.8934 36.5361 38.7304 36.5361 37.1641V20.2429C35.967 20.4645 35.414 20.5991 34.8761 20.647V27.4573C34.8761 27.5839 34.8282 27.695 34.7335 27.7894C34.6391 27.8845 34.5279 27.932 34.401 27.932L34.4008 27.9322ZM23.4408 9.56363H16.3228V19.2467H23.4408V9.56363ZM17.7935 20.6701V41.7682H21.8511V20.6701H17.7935ZM15.3742 9.56363H5.38608C4.34158 9.62757 3.43275 10.0383 2.65744 10.7979C1.83526 11.6522 1.42415 12.6729 1.42415 13.8596V14.9509C1.42415 16.1376 1.83557 17.1499 2.65744 17.9881L2.80005 18.1307C3.60716 18.8746 4.57898 19.2462 5.71782 19.2462H15.3743L15.3742 9.56363ZM3.01394 20.0291V37.1637C3.01394 38.73 3.43306 39.893 4.27097 40.6522C5.10887 41.3967 6.41377 41.768 8.18498 41.768H16.8448L16.8451 20.6699H5.71806C4.72148 20.6699 3.82096 20.4563 3.01351 20.0292L3.01394 20.0291Z" fill="black"/>
</svg>
